# xmcd CD database file
#
# Track frame offsets:
#	182
#	15157
#	25037
#	38635
#	54695
#	66875
#	77802
#	95155
#	106447
#	119260
#
# Disc length: 1725 seconds
#
# Revision: 2
# Processed by: cddbd v1.5.2PL0 Copyright (c) Steve Scherf et al.
# Submitted via: jetAudio 7
#
DISCID=7806bb0a
DTITLE=The Statler Brothers - Years Ago
DYEAR=1900
DGENRE=Country
TTITLE0=Don't Wait On Me
TTITLE1=Today I Went Back
TTITLE2=In The Garden
TTITLE3=Chet Atkins' Hand
TTITLE4=You'll Be Back (Every Night In My Dreams)
TTITLE5=Years Ago
TTITLE6=Love Was All We Had
TTITLE7=We Ain't Even Started Yet
TTITLE8=Dad
TTITLE9=Memories Are Made Of This
EXTD=
EXTT0=
EXTT1=
EXTT2=
EXTT3=
EXTT4=
EXTT5=
EXTT6=
EXTT7=
EXTT8=
EXTT9=
PLAYORDER=
